<svg xmlns="http://www.w3.org/2000/svg" width="1600" height="948" viewBox="0 0 1600 948" preserveAspectRatio="xMinYMin meet">
  <rect width="100%" height="100%" fill="#ffffff"/>
  <style><![CDATA[
    text { font-family: "Noto Sans SC", "Microsoft YaHei", "Segoe UI", sans-serif; font-size:11px; fill: #111; }
  ]]></style>
  <text x="16" y="16">payload() 输出字段与约束</text>
  <text x="16" y="52">字段</text>
  <text x="16" y="88">类型</text>
  <text x="16" y="124">title</text>
  <text x="16" y="160">str</text>
  <text x="16" y="196">priority</text>
  <text x="16" y="232">&quot;高&quot; | &quot;中&quot; | &quot;低&quot;</text>
  <text x="16" y="268">due_at</text>
  <text x="16" y="304">datetime | None</text>
  <text x="16" y="340">remind_at</text>
  <text x="16" y="376">datetime | None</text>
  <text x="16" y="412">parent_id</text>
  <text x="16" y="448">int | None</text>
  <text x="16" y="484">progress</text>
  <text x="16" y="520">int [0, 100]</text>
  <text x="16" y="556">estimated_minutes</text>
  <text x="16" y="592">int</text>
  <text x="16" y="628">tags / category / description</text>
  <text x="16" y="664">str</text>
  <text x="16" y="700">实时约束函数</text>
  <text x="16" y="736">_sync_reminder_constraints()</text>
  <text x="16" y="754">校验 remind_at ≤ due_at，违规自动修正</text>
  <text x="16" y="790">_sync_due_state()</text>
  <text x="16" y="808">截止时间控件启用 / 禁用联动</text>
  <text x="16" y="844">EditorDateTimeField</text>
  <text x="16" y="862">时 / 分独立滚轮 + 预设时间按钮</text>
  <text x="16" y="898">StarryTagEditor</text>
  <text x="16" y="916">流式标签输入，自动去重</text>
</svg>


