<svg xmlns="http://www.w3.org/2000/svg" width="1600" height="1020" viewBox="0 0 1600 1020" preserveAspectRatio="xMinYMin meet">
  <rect width="100%" height="100%" fill="#ffffff"/>
  <style><![CDATA[
    text { font-family: "Noto Sans SC", "Microsoft YaHei", "Segoe UI", sans-serif; font-size:11px; fill: #111; }
  ]]></style>
  <text x="16" y="16">字段</text>
  <text x="16" y="52">类型</text>
  <text x="16" y="88">约束</text>
  <text x="16" y="124">说明</text>
  <text x="16" y="160">id</text>
  <text x="16" y="196">Integer</text>
  <text x="16" y="232">PK</text>
  <text x="16" y="268">便签唯一 ID</text>
  <text x="16" y="304">title</text>
  <text x="16" y="340">String</text>
  <text x="16" y="376">default=&quot;未命名便签&quot;</text>
  <text x="16" y="412">便签标题</text>
  <text x="16" y="448">content</text>
  <text x="16" y="484">Text</text>
  <text x="16" y="520">Nullable</text>
  <text x="16" y="556">便签正文</text>
  <text x="16" y="592">pinned</text>
  <text x="16" y="628">Boolean</text>
  <text x="16" y="664">default=False</text>
  <text x="16" y="700">置顶标志</text>
  <text x="16" y="736">created_at</text>
  <text x="16" y="772">DateTime</text>
  <text x="16" y="808">default=now</text>
  <text x="16" y="844">创建时间戳</text>
  <text x="16" y="880">updated_at</text>
  <text x="16" y="916">DateTime</text>
  <text x="16" y="952">onupdate=now</text>
  <text x="16" y="988">最后修改时间戳</text>
</svg>


